<?xml version="1.0" encoding="iso-8859-1"?>
<!-- Generator: Adobe Illustrator 19.0.0, SVG Export Plug-In . SVG Version: 6.00 Build 0)  -->
<svg version="1.1" id="Layer_1" xmlns="http://www.w3.org/2000/svg" xmlns:xlink="http://www.w3.org/1999/xlink" x="0px" y="0px"
	 viewBox="0 0 512 512" style="enable-background:new 0 0 512 512;" xml:space="preserve">
<g>
	<g>
		<g>
			<path d="M192,234.667C192,211.109,172.891,192,149.333,192h-42.667C83.109,192,64,211.109,64,234.667v42.667
				C64,300.891,83.109,320,106.667,320h42.667C172.891,320,192,300.891,192,277.333V234.667z M149.333,277.333h-42.667v-42.667
				h42.667V277.333z"/>
			<path d="M320,341.333c0-23.558-19.109-42.667-42.667-42.667h-42.667c-23.558,0-42.667,19.109-42.667,42.667V384
				c0,23.558,19.109,42.667,42.667,42.667h42.667C300.891,426.667,320,407.558,320,384V341.333z M277.333,384h-42.667v-42.667
				h42.667V384z"/>
			<path d="M405.333,384h-42.667C339.109,384,320,403.109,320,426.667v42.667C320,492.891,339.109,512,362.667,512h42.667
				C428.891,512,448,492.891,448,469.333v-42.667C448,403.109,428.891,384,405.333,384z M405.333,469.333h-42.667v-42.667h42.667
				V469.333z"/>
			<path d="M405.333,0h-42.667C339.109,0,320,19.109,320,42.667v42.667C320,108.891,339.109,128,362.667,128h42.667
				C428.891,128,448,108.891,448,85.333V42.667C448,19.109,428.891,0,405.333,0z M405.333,85.333h-42.667V42.667h42.667V85.333z"/>
			<path d="M234.667,213.333h42.667c23.558,0,42.667-19.109,42.667-42.667V128c0-23.558-19.109-42.667-42.667-42.667h-42.667
				C211.109,85.333,192,104.442,192,128v42.667C192,194.225,211.109,213.333,234.667,213.333z M234.667,128h42.667v42.667h-42.667
				V128z"/>
		</g>
	</g>
</g>
<g>
</g>
<g>
</g>
<g>
</g>
<g>
</g>
<g>
</g>
<g>
</g>
<g>
</g>
<g>
</g>
<g>
</g>
<g>
</g>
<g>
</g>
<g>
</g>
<g>
</g>
<g>
</g>
<g>
</g>
</svg>
